<svg width="16" height="16" viewBox="0 0 16 16" fill="none" xmlns="http://www.w3.org/2000/svg">
<path d="M2.66668 5.33333V12.6667C2.66668 13.0203 2.80715 13.3594 3.0572 13.6095C3.30725 13.8595 3.64639 14 4.00001 14H12C12.3536 14 12.6928 13.8595 12.9428 13.6095C13.1929 13.3594 13.3333 13.0203 13.3333 12.6667V5.33333M6.33334 11.3333L9.66668 8M6.33334 8L9.66668 11.3333M2.00001 2H14C14.3682 2 14.6667 2.29848 14.6667 2.66667V4.66667C14.6667 5.03486 14.3682 5.33333 14 5.33333H2.00001C1.63182 5.33333 1.33334 5.03486 1.33334 4.66667V2.66667C1.33334 2.29848 1.63182 2 2.00001 2Z" stroke="#09090B" stroke-linecap="round" stroke-linejoin="round"/>
</svg>
