<svg width="24" height="17" viewBox="0 0 24 17" fill="none" xmlns="http://www.w3.org/2000/svg">
<path d="M10.5 11V12.5M5.5 8H5.505V8.005H5.5V8ZM5.5 9.5H5.505V9.505H5.5V9.5ZM5.5 11H5.505V11.005H5.5V11ZM5.5 12.5H5.505V12.505H5.5V12.5ZM7.16504 8H7.17004V8.005H7.16504V8ZM7.16504 9.5H7.17004V9.505H7.16504V9.5ZM7.16504 11H7.17004V11.005H7.16504V11ZM7.16504 12.5H7.17004V12.505H7.16504V12.5ZM8.83496 8H8.83996V8.005H8.83496V8ZM8.83496 9.5H8.83996V9.505H8.83496V9.5ZM8.83496 11H8.83996V11.005H8.83496V11ZM8.83496 12.5H8.83996V12.505H8.83496V12.5ZM10.5 8H10.505V8.005H10.5V8ZM10.5 9.5H10.505V9.505H10.5V9.5ZM5.5 4.5H10.5V6H5.5V4.5ZM8 2C6.73866 2 5.49437 2.07298 4.27112 2.21494C3.53739 2.30009 3 2.93267 3 3.67132V13.5C3 14.3284 3.67157 15 4.5 15H11.5C12.3284 15 13 14.3284 13 13.5V3.67132C13 2.93267 12.4626 2.30009 11.7289 2.21494C10.5056 2.07298 9.26134 2 8 2Z" stroke="#09090B" stroke-width="1.2" stroke-linecap="round" stroke-linejoin="round"/>
</svg>
