<svg width="16" height="16" viewBox="0 0 16 16" fill="none" xmlns="http://www.w3.org/2000/svg">
<path d="M8.00004 8.66667C8.36823 8.66667 8.66671 8.3682 8.66671 8.00001C8.66671 7.63182 8.36823 7.33334 8.00004 7.33334C7.63185 7.33334 7.33337 7.63182 7.33337 8.00001C7.33337 8.3682 7.63185 8.66667 8.00004 8.66667Z" stroke="#09090B" stroke-linecap="round" stroke-linejoin="round"/>
<path d="M8.00004 4.00001C8.36823 4.00001 8.66671 3.70153 8.66671 3.33334C8.66671 2.96515 8.36823 2.66667 8.00004 2.66667C7.63185 2.66667 7.33337 2.96515 7.33337 3.33334C7.33337 3.70153 7.63185 4.00001 8.00004 4.00001Z" stroke="#09090B" stroke-linecap="round" stroke-linejoin="round"/>
<path d="M8.00004 13.3333C8.36823 13.3333 8.66671 13.0349 8.66671 12.6667C8.66671 12.2985 8.36823 12 8.00004 12C7.63185 12 7.33337 12.2985 7.33337 12.6667C7.33337 13.0349 7.63185 13.3333 8.00004 13.3333Z" stroke="#09090B" stroke-linecap="round" stroke-linejoin="round"/>
</svg>
