<svg width="24" height="17" viewBox="0 0 24 17" fill="none" xmlns="http://www.w3.org/2000/svg">
<path d="M10.1213 10.6213C8.94975 11.7929 7.05025 11.7929 5.87868 10.6213M14 8.5C14 11.8137 11.3137 14.5 8 14.5C4.68629 14.5 2 11.8137 2 8.5C2 5.18629 4.68629 2.5 8 2.5C11.3137 2.5 14 5.18629 14 8.5ZM6.5 7C6.5 7.27614 6.38807 7.5 6.25 7.5C6.11193 7.5 6 7.27614 6 7C6 6.72386 6.11193 6.5 6.25 6.5C6.38807 6.5 6.5 6.72386 6.5 7ZM6.25 7H6.255V7.01H6.25V7ZM10 7C10 7.27614 9.88807 7.5 9.75 7.5C9.61193 7.5 9.5 7.27614 9.5 7C9.5 6.72386 9.61193 6.5 9.75 6.5C9.88807 6.5 10 6.72386 10 7ZM9.75 7H9.755V7.01H9.75V7Z" stroke="#09090B" stroke-width="1.2" stroke-linecap="round" stroke-linejoin="round"/>
</svg>
