<svg width="24" height="17" viewBox="0 0 24 17" fill="none" xmlns="http://www.w3.org/2000/svg">
<path d="M6.39568 3.1267C6.45596 2.76506 6.76885 2.5 7.13548 2.5H8.86479C9.23142 2.5 9.54431 2.76506 9.60459 3.1267L9.74692 3.98073C9.78848 4.2301 9.95513 4.43781 10.1763 4.56024C10.2258 4.58761 10.2746 4.61589 10.3229 4.64505C10.5396 4.77589 10.8032 4.81658 11.0402 4.72777L11.8515 4.42385C12.1948 4.29523 12.5808 4.43367 12.7641 4.75118L13.6288 6.24881C13.8121 6.56632 13.739 6.96982 13.4559 7.20284L12.7863 7.75405C12.5913 7.91459 12.4947 8.16248 12.4993 8.41502C12.4999 8.44328 12.5001 8.47161 12.5001 8.5C12.5001 8.52839 12.4999 8.55671 12.4993 8.58497C12.4947 8.83751 12.5913 9.08541 12.7863 9.24594L13.4559 9.79715C13.739 10.0302 13.8121 10.4337 13.6288 10.7512L12.7641 12.2488C12.5808 12.5663 12.1948 12.7048 11.8515 12.5761L11.0402 12.2722C10.8032 12.1834 10.5396 12.2241 10.3229 12.3549C10.2746 12.3841 10.2258 12.4124 10.1763 12.4398C9.95513 12.5622 9.78848 12.7699 9.74692 13.0193L9.60459 13.8733C9.54431 14.2349 9.23142 14.5 8.86479 14.5H7.13548C6.76885 14.5 6.45596 14.2349 6.39568 13.8733L6.25335 13.0193C6.21179 12.7699 6.04514 12.5622 5.82396 12.4398C5.77451 12.4124 5.72563 12.3841 5.67734 12.355C5.46065 12.2241 5.1971 12.1834 4.96006 12.2722L4.14881 12.5761C3.80548 12.7048 3.41949 12.5663 3.23617 12.2488L2.37152 10.7512C2.1882 10.4337 2.26131 10.0302 2.54436 9.79716L3.21393 9.24595C3.40893 9.08542 3.5056 8.83752 3.50092 8.58498C3.5004 8.55672 3.50014 8.52839 3.50014 8.5C3.50014 8.47161 3.5004 8.44329 3.50092 8.41503C3.5056 8.16249 3.40893 7.91459 3.21393 7.75406L2.54436 7.20285C2.26131 6.96983 2.1882 6.56633 2.37152 6.24882L3.23617 4.75119C3.41949 4.43368 3.80548 4.29524 4.14881 4.42386L4.96005 4.72778C5.19709 4.81658 5.46064 4.7759 5.67733 4.64505C5.72562 4.61589 5.77451 4.58761 5.82396 4.56024C6.04514 4.43781 6.21179 4.2301 6.25335 3.98073L6.39568 3.1267Z" stroke="#09090B" stroke-width="1.2" stroke-linecap="round" stroke-linejoin="round"/>
<path d="M9.99998 8.49995C9.99998 9.60452 9.10455 10.4999 7.99998 10.4999C6.89541 10.4999 5.99998 9.60452 5.99998 8.49995C5.99998 7.39538 6.89541 6.49995 7.99998 6.49995C9.10455 6.49995 9.99998 7.39538 9.99998 8.49995Z" stroke="#09090B" stroke-width="1.2" stroke-linecap="round" stroke-linejoin="round"/>
</svg>
